<svg height='300px' width='300px'  fill="#61dafb" xmlns="http://www.w3.org/2000/svg" viewBox="0 0 64 64" x="0px" y="0px"><title>mushrooms, oyster, toadstool, vegetable, fungus, </title><g><rect x="50.5" y="41.98" width="2" height="2.05" transform="translate(-6.39 9.09) rotate(-9.5)"></rect><path d="M56.68,18.1A15.93,15.93,0,0,0,46,14H44a15.83,15.83,0,0,0-3.19.32,16.13,16.13,0,0,0-3.48,1.14c0-.12-.06-.25-.1-.37a16.68,16.68,0,0,0-1-2.3,16,16,0,0,0-3.45-4.58,16.33,16.33,0,0,0-2.68-2h0A16,16,0,0,0,22,4H18a17.27,17.27,0,0,0-2.74.23A16.07,16.07,0,0,0,3.64,12.94h0A16,16,0,0,0,2,20v5a2,2,0,0,0,2,2h9.82l-1.34,7.83,2,.34L15.84,27h8.32l3.61,21.2A7.83,7.83,0,0,1,24,55.9V51a1,1,0,0,0-2,0v5.73a7.54,7.54,0,0,1-4,0V51a1,1,0,0,0-2,0v4.9a7.88,7.88,0,0,1-1.87-1.55,7.78,7.78,0,0,1-1.9-6.1l1.2-7.08-2-.34L10.25,48a9.86,9.86,0,0,0,2.38,7.73A10,10,0,0,0,14.07,57H2v2H62V57H50.5a8.24,8.24,0,0,0,1.08-1,8.65,8.65,0,0,0,1.93-7L53,45.84l-2,.32.52,3.13a6.59,6.59,0,0,1-1.48,5.37,6.51,6.51,0,0,1-2,1.61V53a1,1,0,0,0-2,0v3.92a6.29,6.29,0,0,1-2,0V53a1,1,0,0,0-2,0v3.27a6.51,6.51,0,0,1-2-1.61,6.59,6.59,0,0,1-1.48-5.37L40.85,35h8.3L50,40.16l2-.32L51.18,35H60a2,2,0,0,0,2-2V30A16,16,0,0,0,56.68,18.1ZM46,16c.42,0,.83,0,1.24.06l.41.05c.27,0,.54.06.81.11l.48.1.72.17.49.15c.23.07.45.14.68.23l.48.19.65.28.47.24c.21.1.41.22.62.34s.3.18.44.27.4.26.59.4l.43.31.19.16a7,7,0,0,1-12.6-2.92l.31,0,.33,0c.42,0,.83-.06,1.26-.06ZM29.75,8.37a2.68,2.68,0,0,1,.28.18l.47.34c.2.15.39.31.58.47l.43.39c.18.17.36.34.53.52s.27.27.4.42.32.38.47.57.24.29.35.45a7.07,7.07,0,0,1,.44.63c.1.15.2.3.29.46s.27.46.39.7.17.3.24.45.24.55.35.82.12.26.17.39c.15.42.28.84.4,1.26l-.44.3-.33.22-.34.25-.14.1-.58.46,0,0-.29.27-.13.12-.55.51-.3.31-.12.14c-.07.08-.15.15-.22.22a7,7,0,0,1-2.31-11ZM15,8a6,6,0,0,1-9.15,5.11c.08-.14.15-.28.23-.41s.23-.37.35-.54.37-.52.56-.77l.38-.48a10,10,0,0,1,.71-.75c.12-.12.23-.25.36-.37a13.15,13.15,0,0,1,1.14-1l.1-.08A14.06,14.06,0,0,1,10.89,8l.48-.26c.29-.15.59-.31.89-.45L12.84,7c.29-.12.58-.23.87-.32l.62-.19.46-.1A6.05,6.05,0,0,1,15,8ZM7.17,25a3,3,0,0,1,5.66,0ZM15,25h-.1a5,5,0,0,0-9.8,0H4V20a14,14,0,0,1,1-5.09A8,8,0,0,0,17,8a8.31,8.31,0,0,0-.24-1.94C17.18,6,17.59,6,18,6h4a13.9,13.9,0,0,1,6,1.36A9,9,0,0,0,30.82,21q-.29.42-.54.84c-.14.24-.28.47-.41.71s-.22.44-.32.66-.24.5-.34.75-.16.41-.23.62-.13.3-.18.46H15ZM36.49,49a8.65,8.65,0,0,0,1.93,7,8.24,8.24,0,0,0,1.08,1H25.93a9.73,9.73,0,0,0,3.82-9.09L26.18,27h2.11A15.89,15.89,0,0,0,28,30v3a2,2,0,0,0,2,2h8.82ZM50,33H46.1a5,5,0,0,1,9.8,0Zm10,0H57.92a7,7,0,0,0-13.84,0H30V30a14.21,14.21,0,0,1,.5-3.73A13.84,13.84,0,0,1,31,24.94c.13-.35.29-.68.45-1l.11-.24c.15-.3.32-.58.49-.86.08-.12.14-.25.22-.37s.3-.42.45-.63.25-.37.39-.54.45-.54.69-.79c.06-.06.11-.13.16-.19A14.55,14.55,0,0,1,36,18.53h0c.38-.26.77-.51,1.18-.74h0a14.43,14.43,0,0,1,3-1.24,9,9,0,0,0,16,3.87A14,14,0,0,1,60,30Z"></path><path d="M20,15a4,4,0,1,0,4,4A4,4,0,0,0,20,15Zm0,6a2,2,0,1,1,2-2A2,2,0,0,1,20,21Z"></path><path d="M37,23a4,4,0,1,0,4,4A4,4,0,0,0,37,23Zm0,6a2,2,0,1,1,2-2A2,2,0,0,1,37,29Z"></path><rect x="11.95" y="37.01" width="2.01" height="2" transform="translate(-26.69 44.39) rotate(-80.33)"></rect><rect x="17" y="33" width="2" height="2"></rect><rect x="22" y="40" width="2" height="2"></rect><rect x="42" y="39" width="2" height="2"></rect><rect x="47" y="47" width="2" height="2"></rect></g></svg>